<?xml version="1.0" encoding="UTF-8" standalone="no"?>
<svg
   xmlns:dc="http://purl.org/dc/elements/1.1/"
   xmlns:cc="http://creativecommons.org/ns#"
   xmlns:rdf="http://www.w3.org/1999/02/22-rdf-syntax-ns#"
   xmlns:svg="http://www.w3.org/2000/svg"
   xmlns="http://www.w3.org/2000/svg"
   xmlns:sodipodi="http://sodipodi.sourceforge.net/DTD/sodipodi-0.dtd"
   xmlns:inkscape="http://www.inkscape.org/namespaces/inkscape"
   viewBox="0 0 1600 900"
   version="1.1"
   id="svg28"
   sodipodi:docname="bg.svg"
   inkscape:version="0.92.3 (2405546, 2018-03-11)"
   inkscape:export-filename="/home/bast/programming/texas-holdem/client/src/assets/background.svg.png"
   inkscape:export-xdpi="96"
   inkscape:export-ydpi="96">
  <metadata
     id="metadata34">
    <rdf:RDF>
      <cc:Work
         rdf:about="">
        <dc:format>image/svg+xml</dc:format>
        <dc:type
           rdf:resource="http://purl.org/dc/dcmitype/StillImage" />
        <dc:title></dc:title>
      </cc:Work>
    </rdf:RDF>
  </metadata>
  <defs
     id="defs32" />
  <sodipodi:namedview
     pagecolor="#ffffff"
     bordercolor="#666666"
     borderopacity="1"
     objecttolerance="10"
     gridtolerance="10"
     guidetolerance="10"
     inkscape:pageopacity="0"
     inkscape:pageshadow="2"
     inkscape:window-width="1334"
     inkscape:window-height="739"
     id="namedview30"
     showgrid="false"
     inkscape:zoom="0.29344931"
     inkscape:cx="702.17869"
     inkscape:cy="457.74429"
     inkscape:window-x="32"
     inkscape:window-y="0"
     inkscape:window-maximized="1"
     inkscape:current-layer="svg28" />
  <rect
     width="1600"
     height="900"
     id="rect2"
     fill="#f8fff4" />
  <polygon
     points="957,450 539,900 1396,900 "
     id="polygon4"
     transform="matrix(1.1212925,0,0,1.2196102,-132.43993,-197.64912)"
     style="fill:#d6ac68" />
  <polygon
     points="957,450 872.9,900 1396,900 "
     id="polygon6"
     transform="matrix(1.1212925,0,0,1.2196102,-132.43993,-197.64912)"
     style="fill:#b49057" />
  <polygon
     points="-60,900 398,662 816,900 "
     id="polygon8"
     transform="matrix(1.1212925,0,0,1.2196102,-132.43993,-197.64912)"
     style="fill:#b99763" />
  <polygon
     points="337,900 398,662 816,900 "
     id="polygon10"
     transform="matrix(1.1212925,0,0,1.2196102,-132.43993,-197.64912)"
     style="fill:#9c7f54" />
  <polygon
     points="1203,546 1552,900 876,900 "
     id="polygon12"
     transform="matrix(1.1212925,0,0,1.2196102,-132.43993,-197.64912)"
     style="fill:#9d825e" />
  <polygon
     points="1203,546 1552,900 1162,900 "
     id="polygon14"
     transform="matrix(1.1212925,0,0,1.2196102,-132.43993,-197.64912)"
     style="fill:#856e50" />
  <polygon
     points="641,695 886,900 367,900 "
     id="polygon16"
     transform="matrix(1.1212925,0,0,1.2196102,-132.43993,-197.64912)"
     style="fill:#806d5a" />
  <polygon
     points="587,900 641,695 886,900 "
     id="polygon18"
     transform="matrix(1.1212925,0,0,1.2196102,-132.43993,-197.64912)"
     style="fill:#6d5d4d" />
  <polygon
     points="1710,900 1401,632 1096,900 "
     id="polygon20"
     transform="matrix(1.1212925,0,0,1.2196102,-132.43993,-197.64912)"
     style="fill:#645855" />
  <polygon
     points="1710,900 1401,632 1365,900 "
     id="polygon22"
     transform="matrix(1.1212925,0,0,1.2196102,-132.43993,-197.64912)"
     style="fill:#564c49" />
  <polygon
     points="1210,900 971,687 725,900 "
     id="polygon24"
     transform="matrix(1.1212925,0,0,1.2196102,-132.43993,-197.64912)"
     style="fill:#474350" />
  <polygon
     points="943,900 1210,900 971,687 "
     id="polygon26"
     transform="matrix(1.1212925,0,0,1.2196102,-132.43993,-197.64912)"
     style="fill:#3e3b46" />
</svg>
